<?xml version="1.0" encoding="UTF-8" standalone="no"?>
<svg
   viewBox="0 0 4666.6665 3333.3333"
   height="3333.3333"
   width="4666.6665"
   xml:space="preserve"
   id="svg2"
   version="1.1"
   sodipodi:docname="TaeAugust07.svg"
   inkscape:export-filename="TaeAugust07.png"
   inkscape:export-xdpi="96"
   inkscape:export-ydpi="96"
   inkscape:version="1.2 (dc2aedaf03, 2022-05-15)"
   xmlns:inkscape="http://www.inkscape.org/namespaces/inkscape"
   xmlns:sodipodi="http://sodipodi.sourceforge.net/DTD/sodipodi-0.dtd"
   xmlns="http://www.w3.org/2000/svg"
   xmlns:svg="http://www.w3.org/2000/svg"
   xmlns:rdf="http://www.w3.org/1999/02/22-rdf-syntax-ns#"
   xmlns:cc="http://creativecommons.org/ns#"
   xmlns:dc="http://purl.org/dc/elements/1.1/"><sodipodi:namedview
     id="namedview570"
     pagecolor="#505050"
     bordercolor="#ffffff"
     borderopacity="1"
     inkscape:showpageshadow="0"
     inkscape:pageopacity="0"
     inkscape:pagecheckerboard="1"
     inkscape:deskcolor="#505050"
     showgrid="false"
     inkscape:zoom="0.141"
     inkscape:cx="1393.617"
     inkscape:cy="1631.2056"
     inkscape:window-width="1366"
     inkscape:window-height="699"
     inkscape:window-x="0"
     inkscape:window-y="0"
     inkscape:window-maximized="1"
     inkscape:current-layer="g12" /><metadata
     id="metadata8"><rdf:RDF><cc:Work
         rdf:about=""><dc:format>image/svg+xml</dc:format><dc:type
           rdf:resource="http://purl.org/dc/dcmitype/StillImage" /></cc:Work></rdf:RDF></metadata><defs
     id="defs6"><clipPath
       id="clipPath198"
       clipPathUnits="userSpaceOnUse"><path
         id="path196"
         d="m 11282,14071.6 113.2,-1014.9 c 0,0 -513.6,-962.7 -175,-1213.8 338.6,-251.1 650.6,19 741.9,646.8 91.4,627.8 -247.3,1784.5 -547.9,2009 -300.5,224.5 -1392.5,205.5 -1499.06,76.1 -106.54,-129.4 -1172.36,-2513.5 -752.45,-3002.4 419.9,-488.8 1773.61,-43.8 1773.61,-43.8 l -219.3,1416.4 -595.4,419.9 c 0,0 -35,770.3 -30.9,758.2 4,-12.2 83,377.5 83,377.5 374,108.1 657.1,121.5 1026.1,-27.5 z" /></clipPath></defs><g
     transform="matrix(1.3333333,0,0,-1.3333333,0,3333.3333)"
     id="g10"><g
       transform="scale(0.1)"
       id="g12"><g
         transform="scale(2.14724)"
         id="g14"
         style="display:none"><path
           id="path16"
           style="fill:#ffffff;fill-opacity:1;fill-rule:nonzero;stroke:none"
           d="M 16300,0 H 0 V 11642.9 H 16300 V 0" /></g><g
         transform="scale(1.95065)"
         id="g18"><path
           id="path20"
           style="fill:#c7ebff;fill-opacity:1;fill-rule:nonzero;stroke:none"
           d="m 2379.38,1691.74 c 1201.53,1610.8 421.35,3038.89 36.2,4949.02 -943.8,3042.16 2731.06,5497.84 6406.14,3121.07 2279.78,-1474.44 4408.48,17.96 6118.38,-1531.33 1359.9,-1232.12 5.7,-3832.07 -23.7,-5003.73 -23.1,-923.59 771.8,-1535.03 771.8,-1535.03 H 2379.38" /></g><g
         transform="scale(1.96928)"
         id="g22"><path
           id="path24"
           style="fill:#000000;fill-opacity:1;fill-rule:nonzero;stroke:none"
           d="M 16273.5,1615.66 H 1347.15 c -14.63,0 -26.49,11.84 -26.49,26.46 v 0 c 0,14.68 11.86,26.51 26.49,26.51 H 16273.5 c 14.6,0 26.5,-11.83 26.5,-26.51 v 0 c 0,-14.62 -11.9,-26.46 -26.5,-26.46" /></g><g
         transform="scale(1.76177)"
         id="g26"><path
           id="path28"
           style="fill:#6bb2e3;fill-opacity:1;fill-rule:nonzero;stroke:none"
           d="m 15609.4,2338.9 v 0 c 381.4,0 690.6,309.12 690.6,690.5 v 941.44 H 14918.9 V 3029.4 c 0,-381.38 309.2,-690.5 690.5,-690.5" /></g><g
         transform="scale(1.77004)"
         id="g30"><path
           id="path32"
           style="fill:#425899;fill-opacity:1;fill-rule:nonzero;stroke:none"
           d="m 16223.8,1789.79 h 76.2 v 1454.38 h -76.2 V 1789.79" /></g><g
         transform="scale(1.61249)"
         id="g34"><path
           id="path36"
           style="fill:#425899;fill-opacity:1;fill-rule:nonzero;stroke:none"
           d="m 16216.4,1964.66 h 83.6 v 1596.48 h -83.6 V 1964.66" /></g><g
         transform="scale(1.6758)"
         id="g38"><path
           id="path40"
           style="fill:#425899;fill-opacity:1;fill-rule:nonzero;stroke:none"
           d="m 16219.6,1890.44 h 80.4 v 1536.17 h -80.4 V 1890.44" /></g><g
         transform="scale(1.77004)"
         id="g42"><path
           id="path44"
           style="fill:#425899;fill-opacity:1;fill-rule:nonzero;stroke:none"
           d="m 16300,2251.76 v 76.21 h -1454.3 v -76.21 H 16300" /></g><g
         transform="scale(1.6996)"
         id="g46"><path
           id="path48"
           style="fill:#a3cfff;fill-opacity:1;fill-rule:nonzero;stroke:none"
           d="m 15942.3,5959.42 c 133.8,-71.19 28.1,-246.06 82.9,-411.86 54.7,-165.75 274.8,-161.75 191.7,-458.41 -51.2,-182.69 -232.6,-68.19 -228.4,-305.72 4.1,-237.52 94.1,-231.7 24.3,-353.85 -121.7,-212.87 -536.5,-93.78 -539.8,143.92 -3.3,237.76 195.7,318.61 27.6,429.16 -168.1,110.56 -235.3,160.86 -124.7,318.96 137,195.69 349.3,189.75 289.9,342.49 -59.4,152.75 99.6,389.45 276.5,295.31" /></g><g
         transform="scale(1.65493)"
         id="g50"><path
           id="path52"
           style="fill:#425899;fill-opacity:1;fill-rule:nonzero;stroke:none"
           d="m 16300,4232.68 -35.8,-10.27 c -243.1,847.16 -15.5,1644.84 -13.1,1652.75 l 35.7,-10.45 c -2.3,-7.86 -226.8,-795.62 13.2,-1632.03" /></g><g
         transform="scale(1.85766)"
         id="g54"><path
           id="path56"
           style="fill:#a1d3ff;fill-opacity:1;fill-rule:nonzero;stroke:none"
           d="m 16209.7,5610.73 c 90.3,-162.04 -134.6,-271.8 -188.3,-478.73 -53.8,-206.92 187.2,-266.41 -95.4,-516.4 -174.1,-153.96 -216.7,-65.62 -266.6,-392.32 -43.9,-287.57 -274.3,-28.15 -427.2,-203.59 -197.3,-226.36 -548,229.48 -393.4,476.24 154.5,246.71 352.6,195.36 253.1,420.8 -99.5,225.45 -4.2,404.17 214.6,493.31 270.9,110.36 382.2,-116 422.6,80.59 40.3,196.59 361.2,334.45 480.6,120.1" /></g><g
         transform="scale(1.81874)"
         id="g58"><path
           id="path60"
           style="fill:#425899;fill-opacity:1;fill-rule:nonzero;stroke:none"
           d="m 15235.2,3847.4 c 307.2,1014.93 1057.3,1672.09 1064.8,1678.64 l -29.6,34.3 c -7.7,-6.59 -767.6,-672.44 -1078.5,-1699.8 l 43.3,-13.14" /></g><path
         id="path62"
         style="fill:#61b8ff;fill-opacity:1;fill-rule:nonzero;stroke:none"
         d="m 6992.55,15007.3 c 24.98,-151.5 109.19,-288.9 224.83,-388.1 115.64,-99.1 263.11,-160.7 414.6,-160.7 h 1421.51 c 200.25,0 357.79,107.6 427.09,267.9 35.46,82.2 47.95,178.1 31.03,280.9 -24.98,151.5 -109.2,288.8 -224.43,388 -116.04,99.1 -263.11,160.7 -414.6,160.7 H 7451.07 c -70.11,0 -134.98,-13.3 -192.59,-37 -191.79,-79.8 -304.21,-278.9 -265.93,-511.7" /><path
         id="path64"
         style="fill:#123e80;fill-opacity:1;fill-rule:nonzero;stroke:none"
         d="m 8981.54,13906.8 v 0 c 54.44,0 93.09,53.1 76.39,104.9 l -190.91,592.4 c -10.69,33.2 -41.55,55.6 -76.39,55.6 v 0 c -54.45,0 -93.1,-53 -76.4,-104.8 l 190.92,-592.4 c 10.68,-33.2 41.55,-55.7 76.39,-55.7" /><path
         id="path66"
         style="fill:#123e80;fill-opacity:1;fill-rule:nonzero;stroke:none"
         d="m 8040.2,13906.8 v 0 c 54.44,0 93.09,53.1 76.39,104.9 l -190.91,592.4 c -10.69,33.2 -41.55,55.6 -76.39,55.6 v 0 c -54.45,0 -93.09,-53 -76.4,-104.8 l 190.92,-592.4 c 10.68,-33.2 41.55,-55.7 76.39,-55.7" /><path
         id="path68"
         style="fill:#9eddff;fill-opacity:1;fill-rule:nonzero;stroke:none"
         d="m 7227.85,15238.9 c 24.98,-151.5 109.19,-288.9 224.83,-388.4 115.64,-99.1 263.11,-160.7 414.61,-160.7 h 1421.5 c 69.71,0 134.17,12.8 191.79,36.6 35.46,82.2 47.95,178.1 31.03,280.9 -24.98,151.5 -109.2,288.8 -224.43,388 -116.04,99.1 -263.11,160.7 -414.6,160.7 H 7451.07 c -70.11,0 -134.98,-13.3 -192.59,-37 -35.06,-82.2 -47.55,-177.7 -30.63,-280.1" /><path
         id="path70"
         style="fill:#0d192b;fill-opacity:1;fill-rule:nonzero;stroke:none"
         d="m 13293,3554.7 h -267.8 v 498.5 h 267.8 v -498.5" /><path
         id="path72"
         style="fill:#0d192b;fill-opacity:1;fill-rule:nonzero;stroke:none"
         d="m 11284.1,3554.7 h -267.9 v 498.5 h 267.9 v -498.5" /><path
         id="path74"
         style="fill:#0d192b;fill-opacity:1;fill-rule:nonzero;stroke:none"
         d="m 9038.62,3554.7 h -267.87 v 498.5 h 267.87 v -498.5" /><path
         id="path76"
         style="fill:#0d192b;fill-opacity:1;fill-rule:nonzero;stroke:none"
         d="m 9175.47,3556.2 c 0,-178.4 -91.46,-323 -204.29,-323 -112.84,0 -204.3,144.6 -204.3,323 0,178.4 91.46,323.1 204.3,323.1 112.83,0 204.29,-144.7 204.29,-323.1" /><path
         id="path78"
         style="fill:#0d192b;fill-opacity:1;fill-rule:nonzero;stroke:none"
         d="m 9373.46,3556.2 c 0,-178.4 -91.46,-323 -204.29,-323 -112.83,0 -204.3,144.6 -204.3,323 0,178.4 91.47,323.1 204.3,323.1 112.83,0 204.29,-144.7 204.29,-323.1" /><path
         id="path80"
         style="fill:#0d192b;fill-opacity:1;fill-rule:nonzero;stroke:none"
         d="m 9247.94,3259.3 c -84.99,-66.3 -322.56,-36.2 -355.78,-1.9 l -1.51,595.9 c 63.76,55.8 288.69,53.8 357.19,3 l 0.1,-597" /><path
         id="path82"
         style="fill:#1e62cc;fill-opacity:1;fill-rule:nonzero;stroke:none"
         d="m 9328.44,3565 c 0,-122.3 -62.68,-221.4 -140,-221.4 -77.32,0 -140,99.1 -140,221.4 0,122.2 62.68,221.3 140,221.3 77.32,0 140,-99.1 140,-221.3" /><path
         id="path84"
         style="fill:#0d192b;fill-opacity:1;fill-rule:nonzero;stroke:none"
         d="m 9258.93,3558.6 c 0,-74.5 -38.2,-134.8 -85.31,-134.8 -47.12,0 -85.31,60.3 -85.31,134.8 0,74.5 38.19,134.9 85.31,134.9 47.11,0 85.31,-60.4 85.31,-134.9" /><path
         id="path86"
         style="fill:#0d192b;fill-opacity:1;fill-rule:nonzero;stroke:none"
         d="m 10905.4,3556.2 c 0,-178.4 91.5,-323 204.3,-323 112.9,0 204.3,144.6 204.3,323 0,178.4 -91.4,323.1 -204.3,323.1 -112.8,0 -204.3,-144.7 -204.3,-323.1" /><path
         id="path88"
         style="fill:#0d192b;fill-opacity:1;fill-rule:nonzero;stroke:none"
         d="m 10707.5,3556.2 c 0,-178.4 91.4,-323 204.3,-323 112.8,0 204.3,144.6 204.3,323 0,178.4 -91.5,323.1 -204.3,323.1 -112.9,0 -204.3,-144.7 -204.3,-323.1" /><path
         id="path90"
         style="fill:#0d192b;fill-opacity:1;fill-rule:nonzero;stroke:none"
         d="m 10833,3259.3 c 85,-66.3 322.5,-36.2 355.8,-1.9 l 1.5,595.9 c -63.8,55.8 -288.7,53.8 -357.2,3 l -0.1,-597" /><path
         id="path92"
         style="fill:#1e62cc;fill-opacity:1;fill-rule:nonzero;stroke:none"
         d="m 10752.5,3565 c 0,-122.3 62.7,-221.4 140,-221.4 77.3,0 140,99.1 140,221.4 0,122.2 -62.7,221.3 -140,221.3 -77.3,0 -140,-99.1 -140,-221.3" /><path
         id="path94"
         style="fill:#0d192b;fill-opacity:1;fill-rule:nonzero;stroke:none"
         d="m 10822,3558.6 c 0,-74.5 38.2,-134.8 85.3,-134.8 47.1,0 85.3,60.3 85.3,134.8 0,74.5 -38.2,134.9 -85.3,134.9 -47.1,0 -85.3,-60.4 -85.3,-134.9" /><path
         id="path96"
         style="fill:#0d192b;fill-opacity:1;fill-rule:nonzero;stroke:none"
         d="m 12946,3556.2 c 0,-178.4 91.4,-323 204.3,-323 112.8,0 204.3,144.6 204.3,323 0,178.4 -91.5,323.1 -204.3,323.1 -112.9,0 -204.3,-144.7 -204.3,-323.1" /><path
         id="path98"
         style="fill:#0d192b;fill-opacity:1;fill-rule:nonzero;stroke:none"
         d="m 12748,3556.2 c 0,-178.4 91.4,-323 204.3,-323 112.8,0 204.3,144.6 204.3,323 0,178.4 -91.5,323.1 -204.3,323.1 -112.9,0 -204.3,-144.7 -204.3,-323.1" /><path
         id="path100"
         style="fill:#0d192b;fill-opacity:1;fill-rule:nonzero;stroke:none"
         d="m 12873.5,3259.3 c 85,-66.3 322.6,-36.2 355.8,-1.9 l 1.5,595.9 c -63.8,55.8 -288.7,53.8 -357.2,3 l -0.1,-597" /><path
         id="path102"
         style="fill:#1e62cc;fill-opacity:1;fill-rule:nonzero;stroke:none"
         d="m 12793,3565 c 0,-122.3 62.7,-221.4 140,-221.4 77.3,0 140,99.1 140,221.4 0,122.2 -62.7,221.3 -140,221.3 -77.3,0 -140,-99.1 -140,-221.3" /><path
         id="path104"
         style="fill:#0d192b;fill-opacity:1;fill-rule:nonzero;stroke:none"
         d="m 12862.5,3558.6 c 0,-74.5 38.2,-134.8 85.3,-134.8 47.1,0 85.3,60.3 85.3,134.8 0,74.5 -38.2,134.9 -85.3,134.9 -47.1,0 -85.3,-60.4 -85.3,-134.9" /><path
         id="path106"
         style="fill:#0d192b;fill-opacity:1;fill-rule:nonzero;stroke:none"
         d="m 11384.7,4139.3 h -390.2 v 4063.9 h 390.2 V 4139.3" /><path
         id="path108"
         style="fill:#1a56b3;fill-opacity:1;fill-rule:nonzero;stroke:none"
         d="m 13478.9,4004.1 c 0.5,3.4 3,6.7 3,10 0,215.2 -1063.6,389.6 -2375.8,389.6 -1312.13,0 -2375.84,-174.4 -2375.84,-389.6 0,-3.3 2.57,-6.6 3.08,-10 h 4745.56" /><path
         id="path110"
         style="fill:#1a56b3;fill-opacity:1;fill-rule:nonzero;stroke:none"
         d="m 10865.4,6996.9 h 634.3 v 773.6 h -634.3 v -773.6" /><path
         id="path112"
         style="fill:#1a56b3;fill-opacity:1;fill-rule:nonzero;stroke:none"
         d="m 10865.4,4274.1 h 634.3 v 773.6 h -634.3 v -773.6" /><path
         id="path114"
         style="fill:#4a82db;fill-opacity:1;fill-rule:nonzero;stroke:none"
         d="m 9997.71,14272.6 v -0.8 c -8.38,0.8 -16.77,0.8 -25.15,0.8 h 25.15" /><path
         id="path116"
         style="fill:#9eddff;fill-opacity:1;fill-rule:nonzero;stroke:none"
         d="m 8717.56,9148.3 h 34.37 l 15.51,-67.5 -21.8,29.4 z m -1729.39,4740.3 c 0,-38.6 4.61,-78.4 14.25,-119.5 L 8317.23,8687.2 c 5.87,-24.7 12.99,-49 22.21,-72.9 97.26,-387.4 450.22,-656.5 850.55,-645.6 l 1374.51,35.6 h 2708.9 c 163.9,0 311.4,64.2 418.3,167.7 107.3,103.6 174,246.5 174,404.5 0,56.2 -8.8,109.9 -25.6,160.2 -75.9,231.8 -314,390.2 -582.7,390.2 0,0 -1218.2,-33.1 -1573.2,308.1 -355.5,341.7 -1156.4,4311 -1156.4,4311 -67.9,282.2 -353.3,512.7 -645.52,525.7 -8.8,0.8 -17.6,0.8 -25.99,0.8 0,0 -1839,16.4 -2402.81,13.9 -42.76,0 -78.39,-0.4 -105.22,-0.9 -24.73,-0.4 -40.24,-0.8 -45.69,-1.2 -1.26,-0.4 -1.68,-0.4 -1.68,-0.4 -190.31,-42 -312.72,-197.1 -312.72,-395.3" /><path
         id="path118"
         style="fill:#1a56b3;fill-opacity:1;fill-rule:nonzero;stroke:none"
         d="m 8846.83,8002.5 c -0.52,-2.5 -2.94,-5 -2.94,-7.5 0,-161.7 1014.18,-292.8 2265.21,-292.8 1251.1,0 2265.3,131.1 2265.3,292.8 0,2.5 -2.5,5 -3,7.5 H 8846.83" /><path
         id="path120"
         style="fill:#61b8ff;fill-opacity:1;fill-rule:nonzero;stroke:none"
         d="m 6988.17,13888.6 c 0,-38.6 4.61,-78.4 14.25,-119.5 L 8317.23,8687.2 c 5.87,-24.7 12.99,-49 22.21,-72.9 97.26,-387.4 450.22,-656.5 850.55,-645.6 l 1374.51,35.6 h 2708.9 c 163.9,0 311.4,64.2 418.3,167.7 107.3,103.6 174,246.5 174,404.5 0,56.2 -8.8,109.9 -25.6,160.2 -155.1,-403.6 -4682.69,-431.9 -4997.51,90.6 -307.69,267 -966.15,4814.8 -1389.11,5459.1 -42.76,0 -78.39,-0.4 -105.22,-0.9 -24.73,-0.4 -40.24,-0.8 -45.69,-1.2 -1.26,-0.4 -1.68,-0.4 -1.68,-0.4 -190.31,-42 -312.72,-197.1 -312.72,-395.3" /><path
         id="path122"
         style="fill:#aae0ff;fill-opacity:1;fill-rule:nonzero;stroke:none"
         d="m 9273.91,13635.3 c 418.24,311.6 1853.39,553.6 2771.89,123 145.9,-138.2 355.9,-639.9 487.1,-1111.4 l 362.9,-3935.8 H 9790.56 l -516.65,4924.2" /><path
         id="path124"
         style="fill:#f7a594;fill-opacity:1;fill-rule:nonzero;stroke:none"
         d="m 10938.9,13452.7 c -493.7,-71.8 -800.7,272.7 -872.9,416.8 l 198.7,1233.5 401.7,-179.3 c 164.2,-13.6 328.3,-53 469.4,-108.7 l 127.4,-657.9 28.1,-142.6 c 64.1,-140.4 141.3,-489.9 -352.4,-561.8" /><path
         id="path126"
         style="fill:#e6836f;fill-opacity:1;fill-rule:nonzero;stroke:none"
         d="m 10393.2,14789.7 c 16.1,-152.6 216.9,-771.1 883.5,-706.8 l -123.7,643.4 -759.8,63.4" /><g
         transform="scale(1.01903)"
         id="g128"><path
           id="path130"
           style="fill:#f7a594;fill-opacity:1;fill-rule:nonzero;stroke:none"
           d="m 11721.9,15269.8 c -22.3,-196.7 -76.9,-626.6 -152.8,-806.5 -115.4,-273.9 -472.5,-495.5 -705.6,-457.8 -263,64 -578.5,265.5 -708,498.8 -60.5,163.6 -159.03,535.5 -162.17,831.2 -6.47,616.9 527.27,964.5 1035.37,906.8 508.2,-57.6 763.1,-359.1 693.2,-972.5" /></g><g
         transform="scale(1.02471)"
         id="g132"><path
           id="path134"
           style="fill:#73382a;fill-opacity:1;fill-rule:nonzero;stroke:none"
           d="m 9976.5,14833.9 c -39.33,214.6 121.1,240.1 220.9,49.3 21.8,144 5.6,593.7 187.9,677.5 207.2,98.7 862.5,-203.9 1359.3,49.1 0,0 -64.2,690.2 -1078.2,649.1 -1193.06,-183.2 -689.9,-1425 -689.9,-1425" /></g><path
         id="path136"
         style="fill:#f7a594;fill-opacity:1;fill-rule:nonzero;stroke:none"
         d="m 10408.7,15334.7 c 44.6,-126.4 2.2,-258.8 -94.6,-295.7 -96.9,-36.8 -211.5,35.8 -256.1,162.2 -44.5,126.5 -2.2,258.9 94.7,295.7 96.8,36.9 211.4,-35.7 256,-162.2" /><path
         id="path138"
         style="fill:#a65b4a;fill-opacity:1;fill-rule:nonzero;stroke:none"
         d="m 11553.5,14723 c -39.8,-7.4 -109.9,-40.5 -179.1,-77.2 -100.6,-53.3 -199.1,-114.1 -199.1,-114.1 0,0 -297.5,179.9 -289.3,468.6 4,-4.4 8.1,-8.7 12.2,-13 231.1,-238.2 655.3,-264.3 655.3,-264.3" /><path
         id="path140"
         style="fill:#ffffff;fill-opacity:1;fill-rule:nonzero;stroke:none"
         d="m 11553.5,14723 c -39.8,-7.4 -109.9,-40.5 -179.1,-77.2 -301.7,69 -425.7,231.2 -476.2,341.5 231.1,-238.2 655.3,-264.3 655.3,-264.3" /><path
         id="path142"
         style="fill:#a65b4a;fill-opacity:1;fill-rule:nonzero;stroke:none"
         d="m 11537.6,14862.9 c -60.4,3.8 -107.6,38.8 -108.3,39.4 -5.4,4.1 -6.5,11.8 -2.4,17.2 4.1,5.4 11.9,6.5 17.3,2.4 4,-3 98.4,-72.8 184,-6.7 47,36.2 34.7,60.5 2,125.4 -31,61.6 -77.9,154.6 -94.2,312.6 -0.7,6.8 4.2,12.8 11,13.5 6.7,0.7 12.8,-4.2 13.5,-10.9 15.8,-153.6 61.5,-244.2 91.7,-304.1 33.8,-66.9 54.1,-107.3 -9,-156 -35.5,-27.5 -72.6,-34.8 -105.6,-32.8" /><path
         id="path144"
         style="fill:#1e1e1e;fill-opacity:1;fill-rule:nonzero;stroke:none"
         d="m 11209.6,15469.6 c -2.9,-46.2 -25.9,-82.5 -51.4,-80.9 -25.4,1.6 -43.8,40.3 -41,86.6 2.9,46.3 25.9,82.5 51.4,80.9 25.5,-1.5 43.8,-40.3 41,-86.6" /><path
         id="path146"
         style="fill:#1e1e1e;fill-opacity:1;fill-rule:nonzero;stroke:none"
         d="m 11856.4,15439.3 c -2.6,-42.1 -23.5,-75.1 -46.7,-73.7 -23.3,1.4 -40,36.8 -37.4,78.9 2.6,42.1 23.5,75.1 46.8,73.7 23.2,-1.4 39.9,-36.7 37.3,-78.9" /><g
         transform="scale(1.04329)"
         id="g148"><path
           id="path150"
           style="fill:#73382a;fill-opacity:1;fill-rule:nonzero;stroke:none"
           d="m 11409.3,15300 c 0,0 488.6,47.7 335.9,524.4 -151.3,-153.9 -305.3,-78.7 -305.3,-78.7 0,0 179.5,225 -117.3,554.3 -47.3,-205.4 -455,-295.8 -688.3,-235.3 -369.6,95.9 -743.5,-36.3 -783.18,-393 0,0 -241.83,-58.9 -157.58,-539.5 373.36,13.1 538.56,353.5 813.96,402.8 275.4,49.4 509.6,-290.4 901.8,-235" /></g><path
         id="path152"
         style="fill:#a65b4a;fill-opacity:1;fill-rule:nonzero;stroke:none"
         d="m 11410.9,14349.5 c 0,0 -181.9,-42.7 -281.9,-40.3 -132,3.1 -340.7,76.1 -340.7,76.1 l 346.4,-185.3 276.2,149.5" /><path
         id="path154"
         style="fill:#1951a6;fill-opacity:1;fill-rule:nonzero;stroke:none"
         d="m 11072.3,13442.1 -49,-176.7 349.8,-2191.8 -184.7,-356.1 -329.4,353.4 54.5,2191.8 -79.4,117 92.8,132.9 145.4,-70.5" /><path
         id="path156"
         style="fill:#61b8ff;fill-opacity:1;fill-rule:nonzero;stroke:none"
         d="m 11281.9,14079.3 c -6.7,-260.3 -210,-408.1 -355.7,-556.4 -432.1,112.8 -759.8,377.5 -855.6,622.7 l -203.83,-202.3 c 36.31,-316.5 289.83,-643.7 675.53,-977.3 58.8,169.7 149.1,325.9 406,466.3 l 578.2,-164.6 c 32.7,224.9 58.1,434.5 -73.3,698.8 l -171.3,112.8" /><path
         id="path158"
         style="fill:#73382a;fill-opacity:1;fill-rule:nonzero;stroke:none"
         d="m 14484.1,3258.2 c 206.4,0 206.4,335.6 0,335.6 0,0 -821.3,229.2 -845.2,229.2 -23.9,0 -901,-24.5 -901,-24.5 -115.7,-160.7 -77.2,-387.6 -65,-562.1 l 1811.2,21.8" /><path
         id="path160"
         style="fill:#73382a;fill-opacity:1;fill-rule:nonzero;stroke:none"
         d="m 9810.3,3251.7 c -15.19,173.7 -39.86,359 80.07,517 204.43,75.2 591.23,248.9 989.53,24.3 0,0 7.6,-112.4 316.6,-240 76.8,-87.3 107.7,-175.1 72.7,-301.3 H 9810.3" /><path
         id="path162"
         style="fill:#0d192b;fill-opacity:1;fill-rule:nonzero;stroke:none"
         d="m 12704.9,3823.1 866.3,4453.1 -2557.3,433.5 0.1,1221 c 0,0 1995.6,-1.4 1967.9,-1.4 -87.7,0 1876.2,135.7 2151.3,-930.4 275.1,-1066.2 -1392.4,-5162.7 -1392.4,-5162.7 -238.2,32.8 -786.8,-132.5 -991.4,-196.7 -174.9,-54.9 -222.9,44.6 -44.5,183.6" /><path
         id="path164"
         style="fill:#0d192b;fill-opacity:1;fill-rule:nonzero;stroke:none"
         d="m 12547.2,9929.3 -1927.5,-1573.7 159,-4553.7 c -508.4,280.5 -1065.55,-254.3 -1108.39,-192.7 0,0 -61.58,29.4 40.73,273.2 -195.04,980.2 -905.79,4654.7 -684.47,5063.3 255.69,472 684.58,1011.3 684.58,1011.3 l 2836.05,-27.7" /><path
         id="path166"
         style="fill:#ffffff;fill-opacity:1;fill-rule:nonzero;stroke:none"
         d="m 9919.42,13994.4 c 29.5,-118 377.98,-3616.9 348.48,-4147.9 -29.5,-531.1 -1323.31,-647.8 -1298.17,-1740.7 26.7,-1160.9 61.79,-1663.7 61.79,-1663.7 -479.5,70.1 -736.79,631.5 -806.97,1017.4 -110.14,670.1 -31.32,1431.9 467.81,2397.5 0,0 133.29,3653.4 299.44,3771.6 296.43,210.9 927.62,365.8 927.62,365.8" /><path
         id="path168"
         style="fill:#d9f1ff;fill-opacity:1;fill-rule:nonzero;stroke:none"
         d="m 9659.6,12422.9 c 0,0 -165.99,-484.5 -165.99,-685.3 0,-200.8 971.89,-622.8 971.89,-622.8 H 8877.82 v 751.3 l 781.78,556.8" /><path
         id="path170"
         style="fill:#f7b28a;fill-opacity:1;fill-rule:nonzero;stroke:none"
         d="m 10541.2,10964.4 c 0,0 190.5,172.1 492.5,196.1 302,23.9 566.9,-550.8 566.9,-550.8 h -1045.1 l -14.3,354.7" /><path
         id="path172"
         style="fill:#f7b28a;fill-opacity:1;fill-rule:nonzero;stroke:none"
         d="m 11113.9,11153.3 c 0,0 475.3,-134.4 541.7,-152.1 31,-125.3 -296.1,-71.2 -447.5,-15.5 -166.7,61.4 -94.2,167.6 -94.2,167.6" /><path
         id="path174"
         style="fill:#ffffff;fill-opacity:1;fill-rule:nonzero;stroke:none"
         d="m 9029.06,13665.1 c -290.27,-180 -1090.21,-2066.2 -1097.84,-2573.9 -3.36,-223.8 90.49,-445.6 515.71,-472.9 234.84,-15.1 2227.87,-32.2 2227.87,-32.2 l -25.3,528.7 -1502.35,428.8 458.91,761.5 c 548.84,282.5 78.82,1710.3 -577,1360" /><path
         id="path176"
         style="fill:#f7a594;fill-opacity:1;fill-rule:nonzero;stroke:none"
         d="m 14188.7,13673.4 c 0,0 -184,450.2 -161.4,572.8 22.6,122.7 475.2,281.2 497.5,226.8 22.4,-54.5 69.4,-188.8 -226.8,-269.6 198.5,-182.9 421.3,-547.4 -109.3,-530" /><path
         id="path178"
         style="fill:#f7a594;fill-opacity:1;fill-rule:nonzero;stroke:none"
         d="m 14164.8,13653 c 0,0 -37.6,406 28.3,569.3 87.6,217.6 346.7,357.6 346.7,357.6 0,0 458.2,-359.6 472.3,-424.6 14,-65.1 -367.7,-463.2 -367.7,-463.2 0,0 -284.4,-270.2 -479.6,-39.1" /><path
         id="path180"
         style="fill:#f7a594;fill-opacity:1;fill-rule:nonzero;stroke:none"
         d="m 14219.1,14185.6 c 0,0 112,1012.9 271.6,983.5 73.6,-13.5 -30,-980.8 -30,-980.8 l -241.6,-2.7" /><path
         id="path182"
         style="fill:#e6836f;fill-opacity:1;fill-rule:nonzero;stroke:none"
         d="m 14137.3,13801.1 c 1,-0.3 2.2,-0.3 3.3,0.1 2.8,1 4.3,4.1 3.3,6.9 -47.2,132.5 -124.5,365.4 -111.2,437.2 17.4,94.6 313.8,218.9 441.6,232.2 38.1,4 44.5,-4 45.5,-6.6 14.8,-35.9 26.8,-78.9 4.1,-125 -28.4,-57.7 -104.9,-103.9 -227.3,-137.3 l -9.5,-2.5 7.2,-6.7 c 82.5,-75.9 181,-195.4 210.2,-302.9 0.8,-2.9 3.9,-4.6 6.7,-3.8 2.9,0.8 4.6,3.7 3.8,6.6 -29,106.7 -124.2,224.3 -206.2,301.5 120.1,34 195.8,81.2 224.8,140.3 28,56.8 5.7,110.9 -3.7,134 -5.2,12.3 -23.6,16.7 -56.7,13.2 -129.6,-13.5 -432.4,-138.8 -451.2,-241.1 -13.7,-74.2 64.1,-309.2 111.7,-442.7 0.6,-1.7 1.9,-3 3.6,-3.4" /><path
         id="path184"
         style="fill:#e6836f;fill-opacity:1;fill-rule:nonzero;stroke:none"
         d="m 14688.1,13993.4 c 1.5,-0.4 3,-0.8 4.6,-1.2 l 3.7,-0.8 2.1,3.2 c 65,102.7 220.2,144.1 221.7,144.5 2.9,0.7 4.7,3.7 3.9,6.6 -0.7,2.9 -3.7,4.6 -6.6,3.9 -6.5,-1.7 -157.6,-42 -226.1,-145.9 -0.1,0.1 -0.3,0.1 -0.4,0.2 -97.4,28 -234.3,258.3 -235.6,260.6 -1.6,2.6 -4.9,3.5 -7.5,1.9 -2.6,-1.5 -3.4,-4.8 -1.9,-7.4 5.8,-9.8 140.5,-236.3 242.1,-265.6" /><path
         id="path186"
         style="fill:#f7a594;fill-opacity:1;fill-rule:nonzero;stroke:none"
         d="m 14182.4,13783.2 -165.8,-632.4 511.4,-164.1 62.6,722.1 -408.2,74.4" /><path
         id="path188"
         style="fill:#ffffff;fill-opacity:1;fill-rule:nonzero;stroke:none"
         d="m 12614.9,13473.4 1045.7,-1050.5 465.2,1208 608.6,-191.7 c 0,0 -7.4,-1765.2 -535.5,-2145.3 -808.7,-494.1 -2194.4,1013.3 -2194.4,1013.3 -542,758 286.2,1605.9 610.4,1166.2" /><path
         id="path190"
         style="fill:#ffffff;fill-opacity:1;fill-rule:nonzero;stroke:none"
         d="m 11459.6,13950.8 c 0,0 279.4,-3837.8 781,-4162.4 501.5,-324.5 2273.9,-103.5 2273.9,-103.5 0,0 -1768.4,633.6 -1797.9,1105.7 -29.5,472 -143.6,2722 -143.6,2722 -164.2,201.6 -685.4,440.4 -1113.4,438.2" /><g
         id="g192"><g
           clip-path="url(#clipPath198)"
           id="g194"><path
             id="path200"
             style="fill:#1b658f;fill-opacity:1;fill-rule:nonzero;stroke:none"
             d="m 11369,12181 c -30.1,-163.1 20,-309.2 112,-326.2 92,-16.9 190.9,101.6 221,264.7 30.2,163.2 -20,309.2 -112,326.2 -91.9,17 -190.9,-101.5 -221,-264.7" /><path
             id="path202"
             style="fill:#2997d6;fill-opacity:1;fill-rule:nonzero;stroke:none"
             d="m 11542.6,12160 c -19.6,-106.3 13.1,-201.4 73,-212.4 59.9,-11.1 124.4,66.1 144,172.4 19.6,106.3 -13,201.4 -73,212.5 -59.9,11 -124.4,-66.2 -144,-172.5" /><path
             id="path204"
             style="fill:#0d192b;fill-opacity:1;fill-rule:nonzero;stroke:none"
             d="m 11606.4,12370.3 c 14,0 25.4,11.1 25.8,25.1 0.2,5.8 14.6,595.5 -72.9,1212.8 -81.1,571.5 -557.1,848.2 -965,863.4 -395.5,14.8 -700.51,-201.4 -776.9,-550.5 -68.74,-314.3 20.27,-850.5 24.09,-873.1 2.36,-14.1 15.61,-23.6 29.72,-21.2 14.04,2.4 23.5,15.7 21.13,29.7 -0.92,5.5 -91.16,549 -24.55,853.5 70.79,323.6 355.51,523.8 724.51,510.1 387.2,-14.5 839,-277 915.9,-819.2 86.9,-612.8 72.6,-1198.3 72.5,-1204.2 -0.4,-14.2 10.8,-26.1 25,-26.4 0.3,0 0.5,0 0.7,0" /><path
             id="path206"
             style="fill:#0d192b;fill-opacity:1;fill-rule:nonzero;stroke:none"
             d="m 9618.99,11572 163.73,21 c 14.12,1.8 24.1,14.7 22.29,28.9 -1.82,14.1 -14.78,24.1 -28.87,22.3 l -123.91,-16 c -168.24,435.5 -177.88,903.3 -22.32,1143.3 76.71,118.3 189.91,181.5 336.46,187.6 137.43,5.9 258.43,-39.6 359.93,-134.8 309.3,-290.1 359.1,-959 366.2,-1102.6 l -93.7,3.6 c -13.9,0.9 -26.2,-10.6 -26.8,-24.8 -0.5,-14.2 10.6,-26.2 24.8,-26.7 l 149,-5.7 -0.6,27.3 c -0.7,33.7 -22,827.3 -383.5,1166.4 -112.1,105.2 -245.8,155.3 -397.5,148.9 -164.21,-7 -291.24,-78 -377.57,-211.2 -86.49,-133.4 -127.32,-325.5 -118.08,-555.7 8.45,-210.5 59.25,-442.5 143.05,-653.2 l 7.39,-18.6" /><path
             id="path208"
             style="fill:#1b658f;fill-opacity:1;fill-rule:nonzero;stroke:none"
             d="m 10067.2,13044.7 -1.4,-127.2 c 0,0 -144.41,57.1 -288.66,-36.2 -36.9,51 -62.91,89.4 -62.91,89.4 0,0 115.35,124.9 352.97,74" /><path
             id="path210"
             style="fill:#1b658f;fill-opacity:1;fill-rule:nonzero;stroke:none"
             d="m 9959.04,12999.9 -27.76,144.7 c -40.33,22 -126.75,-1.3 -139.91,-32.8 l 32,-140.9 135.67,29" /></g></g><path
         id="path212"
         style="fill:#2b7eab;fill-opacity:1;fill-rule:nonzero;stroke:none"
         d="m 12029.2,11111.5 c 168.1,17.2 521.3,236.6 605.5,309.2 l 1025.9,-829.5 h -1589.5 l -41.9,520.3" /><path
         id="path214"
         style="fill:#69bff0;fill-opacity:1;fill-rule:nonzero;stroke:none"
         d="m 13510.6,10588.6 c -43.1,0 -1327.7,783.7 -1327.7,783.7 -282.4,-233.5 -577.8,-347.1 -876.5,-431.1 87.3,-173.3 215.1,-290.2 357.6,-355.2 l 1846.6,2.6" /><path
         id="path216"
         style="fill:#bae7ff;fill-opacity:1;fill-rule:nonzero;stroke:none"
         d="M 7121.49,10591.7 H 8706.47 V 10838 H 7121.49 v -246.3" /><path
         id="path218"
         style="fill:#69bff0;fill-opacity:1;fill-rule:nonzero;stroke:none"
         d="M 5772.11,10591.7 H 7121.49 V 10838 H 5772.11 v -246.3" /><path
         id="path220"
         style="fill:#69bff0;fill-opacity:1;fill-rule:nonzero;stroke:none"
         d="M 8492.28,10757.6 H 7223.23 l 589.01,-117.8 z" /><path
         id="path222"
         style="fill:#1951a6;fill-opacity:1;fill-rule:nonzero;stroke:none"
         d="M 7610.75,10289.4 V 3305.2 h 266.33 v 6984.2 h -266.33" /><path
         id="path224"
         style="fill:#1951a6;fill-opacity:1;fill-rule:nonzero;stroke:none"
         d="m 7610.75,10286.6 v -599.5 h 266.33 v 599.5 h -266.33" /><g
         transform="scale(1.22317)"
         id="g226"><path
           id="path228"
           style="fill:#1951a6;fill-opacity:1;fill-rule:nonzero;stroke:none"
           d="m 16082.2,2678.3 h 217.8 v 991.36 h -217.8 V 2678.3" /></g><g
         transform="scale(1.12482)"
         id="g230"><path
           id="path232"
           style="fill:#1951a6;fill-opacity:1;fill-rule:nonzero;stroke:none"
           d="M 16063.2,2912.46 H 16300 V 3990.5 h -236.8 V 2912.46" /></g><path
         id="path234"
         style="fill:#1951a6;fill-opacity:1;fill-rule:nonzero;stroke:none"
         d="M 5358.61,10364.1 V 3266.2 l -253.29,40.1 v 7057.8 h 253.29" /><path
         id="path236"
         style="fill:#1951a6;fill-opacity:1;fill-rule:nonzero;stroke:none"
         d="m 14729.2,3276 h 266.3 v 1212.6 h -266.3 V 3276" /><g
         transform="scale(1.00576)"
         id="g238"><path
           id="path240"
           style="fill:#1951a6;fill-opacity:1;fill-rule:nonzero;stroke:none"
           d="m 16035.2,3257.24 h 264.8 v 1205.65 h -264.8 V 3257.24" /></g><g
         transform="scale(1.05741)"
         id="g242"><path
           id="path244"
           style="fill:#1951a6;fill-opacity:1;fill-rule:nonzero;stroke:none"
           d="M 4139.38,10015 H 16300 V 9731.31 H 4139.38 V 10015" /></g><path
         id="path246"
         style="fill:#1951a6;fill-opacity:1;fill-rule:nonzero;stroke:none"
         d="m 14631.9,4469.4 v 5846.3 h 1645.9 V 4469.4 h -1645.9" /><g
         transform="scale(1.23302)"
         id="g248"><path
           id="path250"
           style="fill:#1951a6;fill-opacity:1;fill-rule:nonzero;stroke:none"
           d="M 13016.3,3624.76 V 8366.22 H 16300 V 3624.76 h -3283.7" /></g><g
         transform="scale(1.22627)"
         id="g252"><path
           id="path254"
           style="fill:#66a1ff;fill-opacity:1;fill-rule:nonzero;stroke:none"
           d="M 13252.2,3644.71 V 8246.8 H 16300 V 3644.71 h -3047.8" /></g><g
         transform="scale(1.23338)"
         id="g256"><path
           id="path258"
           style="fill:#66a1ff;fill-opacity:1;fill-rule:nonzero;stroke:none"
           d="M 5874.37,8586.16 H 16300 V 8342.92 H 5874.37 v 243.24" /></g><g
         transform="scale(1.1379)"
         id="g260"><path
           id="path262"
           style="fill:#adadad;fill-opacity:1;fill-rule:nonzero;stroke:none"
           d="m 15676.6,9306.6 h 623.4 l -122.9,1066.1 h -623.5 l 123,-1066.1" /></g><g
         transform="scale(1.13382)"
         id="g264"><path
           id="path266"
           style="fill:#474747;fill-opacity:1;fill-rule:nonzero;stroke:none"
           d="m 15550.9,10410 0.5,-4.3 66.7,-577.97 56.1,-487.55 h 625.8 l -114.7,994.72 -0.3,3 -8.3,72.1 h -625.8" /></g><g
         transform="scale(1.16937)"
         id="g268"><path
           id="path270"
           style="fill:#adadad;fill-opacity:1;fill-rule:nonzero;stroke:none"
           d="M 14372.9,9058.14 H 16300 v 106.3 h -1927.1 v -106.3" /></g><g
         transform="scale(1.1321)"
         id="g272"><path
           id="path274"
           style="fill:#474747;fill-opacity:1;fill-rule:nonzero;stroke:none"
           d="M 14706.9,9466.09 H 16300 v -109.8 h -1593.1 v 109.8" /></g><g
         transform="scale(1.12605)"
         id="g276"><path
           id="path278"
           style="fill:#2b2b2b;fill-opacity:1;fill-rule:nonzero;stroke:none"
           d="m 15658.7,10477.5 67.2,-581.93 571.2,510.63 2.9,2.6 -3.3,0.4 -638,68.3" /></g><g
         transform="scale(1.23104)"
         id="g280"><path
           id="path282"
           style="fill:#adadad;fill-opacity:1;fill-rule:nonzero;stroke:none"
           d="m 12855.2,9524.57 h 3127.1 c 68.1,0 127.9,55.24 133.5,123.39 l 178.6,2172.04 c 5.6,68.1 -45.1,123.3 -113.2,123.3 H 13054 c -68,0 -127.8,-55.2 -133.4,-123.3 l -178.7,-2172.04 c -5.6,-68.15 45.1,-123.39 113.3,-123.39" /></g><g
         transform="scale(1.22666)"
         id="g284"><path
           id="path286"
           style="fill:#474747;fill-opacity:1;fill-rule:nonzero;stroke:none"
           d="m 12842.8,9561.31 h 3138.4 c 68.3,0 128.3,55.35 133.9,123.75 l 179.3,2179.84 c 5.6,68.4 -45.3,123.7 -113.7,123.7 h -3138.2 c -68.4,0 -128.4,-55.3 -134,-123.7 l -179.2,-2179.84 c -5.7,-68.4 45.2,-123.75 113.5,-123.75" /></g><g
         transform="scale(1.21348)"
         id="g288"><path
           id="path290"
           style="fill:#d9f3ff;fill-opacity:1;fill-rule:nonzero;stroke:none"
           d="m 13052,9845.36 h 3080.2 L 16300,11947 H 13219.8 L 13052,9845.36" /></g><path
         id="path292"
         style="fill:#adadad;fill-opacity:1;fill-rule:nonzero;stroke:none"
         d="m 14965,10716.6 v -124.3 h 1178.3 v 124.3 H 14965" /><path
         id="path294"
         style="fill:#474747;fill-opacity:1;fill-rule:nonzero;stroke:none"
         d="m 13732.4,10640.1 v -47.8 H 14965 v 124.3 l -1232.6,-76.5" /><g
         transform="scale(1.18868)"
         id="g296"><path
           id="path298"
           style="fill:#80b2ff;fill-opacity:1;fill-rule:nonzero;stroke:none"
           d="m 13880.3,10422.4 2156.1,26.1 c 90.6,1.1 169.6,77.8 176.4,171.3 l 80.4,1103.4 c 6.8,93.6 -61.2,168.6 -151.8,167.5 l -2156.1,-26.1 c -90.6,-1.1 -169.6,-77.8 -176.4,-171.4 l -80.3,-1103.4 c -6.8,-93.5 61.1,-168.5 151.7,-167.4" /></g><g
         transform="scale(1.07495)"
         id="g300"><path
           id="path302"
           style="fill:#d9f3ff;fill-opacity:1;fill-rule:nonzero;stroke:none"
           d="m 15555.2,12613 700.1,8.5 c 22.1,0.3 41.4,19 43,41.7 v 0 c 1.7,22.8 -14.9,41 -36.9,40.7 l -700.2,-8.4 c -22.1,-0.3 -41.2,-18.9 -42.9,-41.7 v 0 c -1.7,-22.8 14.9,-41 36.9,-40.8" /></g><g
         transform="scale(1.08921)"
         id="g304"><path
           id="path306"
           style="fill:#d9f3ff;fill-opacity:1;fill-rule:nonzero;stroke:none"
           d="m 15335.3,12225.6 920.6,11.1 c 21.9,0.3 40.8,18.7 42.4,41.1 v 0 c 1.7,22.5 -14.6,40.5 -36.4,40.2 l -920.7,-11.1 c -21.7,-0.2 -40.7,-18.6 -42.4,-41.1 v 0 c -1.5,-22.5 14.7,-40.5 36.5,-40.2" /></g><g
         transform="scale(1.08794)"
         id="g308"><path
           id="path310"
           style="fill:#d9f3ff;fill-opacity:1;fill-rule:nonzero;stroke:none"
           d="m 15334.2,11977.8 921.8,11.1 c 21.8,0.3 40.8,18.8 42.3,41.3 v 0 c 1.7,22.5 -14.7,40.5 -36.4,40.2 l -921.8,-11.1 c -21.8,-0.3 -40.7,-18.7 -42.4,-41.3 v 0 c -1.6,-22.5 14.7,-40.5 36.5,-40.2" /></g><g
         transform="scale(1.08667)"
         id="g312"><path
           id="path314"
           style="fill:#d9f3ff;fill-opacity:1;fill-rule:nonzero;stroke:none"
           d="m 15333,11729.4 922.8,11.2 c 21.8,0.2 40.9,18.7 42.5,41.2 v 0 c 1.7,22.5 -14.7,40.6 -36.5,40.3 L 15339,11811 c -21.8,-0.3 -40.9,-18.8 -42.5,-41.3 v 0 c -1.7,-22.5 14.7,-40.5 36.5,-40.3" /></g><g
         transform="scale(1.16831)"
         id="g316"><path
           id="path318"
           style="fill:#d9f3ff;fill-opacity:1;fill-rule:nonzero;stroke:none"
           d="m 15936.8,11589.8 c -66.6,-57.4 -113.4,-471.8 -26.9,-588.1 39.6,-53.3 107.9,-53.9 167.3,-68.8 70.2,-17.8 126.7,-96.3 155.9,-59 53.9,68.8 66.9,345.4 -22.6,524.2 -31.3,62.3 -207,249 -273.7,191.7" /></g><g
         transform="scale(1.13052)"
         id="g320"><path
           id="path322"
           style="fill:#d9f3ff;fill-opacity:1;fill-rule:nonzero;stroke:none"
           d="m 16182.8,11977.2 c 68.9,-59.2 117.2,-487.5 27.9,-607.8 -41,-55.1 -111.6,-55.6 -172.9,-71.1 -72.6,-18.4 -131,-99.5 -161.1,-60.9 -55.8,71.1 -69.2,356.9 23.4,541.7 32.2,64.4 213.9,257.4 282.7,198.1" /></g><g
         transform="scale(1.1405)"
         id="g324"><path
           id="path326"
           style="fill:#d9f3ff;fill-opacity:1;fill-rule:nonzero;stroke:none"
           d="m 16146.5,11709.9 v 449.5 h 63.7 v -442.9 h 0.1 c 0,-3.7 1.9,-90.4 89.7,-109.7 l -10.6,-48.2 c -58.3,12.8 -92,48.3 -110.1,84.6 -17.7,-37.5 -51.6,-74.6 -111.8,-88 l -10.6,48.2 c 79.4,17.5 88.5,89.9 89.6,106.5" /></g><g
         transform="scale(1.2588)"
         id="g328"><path
           id="path330"
           style="fill:#0d192b;fill-opacity:1;fill-rule:nonzero;stroke:none"
           d="m 16087.2,2899.75 h 212.8 v 396.09 h -212.8 v -396.09" /></g><g
         transform="scale(1.38205)"
         id="g332"><path
           id="path334"
           style="fill:#0d192b;fill-opacity:1;fill-rule:nonzero;stroke:none"
           d="m 16106.2,2641.15 h 193.8 v 360.77 h -193.8 v -360.77" /></g><g
         transform="scale(1.5198)"
         id="g336"><path
           id="path338"
           style="fill:#0d192b;fill-opacity:1;fill-rule:nonzero;stroke:none"
           d="m 16123.7,2401.76 h 176.3 v 328.07 h -176.3 v -328.07" /></g><g
         transform="scale(1.52004)"
         id="g340"><path
           id="path342"
           style="fill:#0d192b;fill-opacity:1;fill-rule:nonzero;stroke:none"
           d="m 16031.2,2402.43 c 0,-117.36 60.1,-212.56 134.4,-212.56 74.2,0 134.4,95.2 134.4,212.56 0,117.37 -60.2,212.5 -134.4,212.5 -74.3,0 -134.4,-95.13 -134.4,-212.5" /></g><g
         transform="scale(1.5079)"
         id="g344"><path
           id="path346"
           style="fill:#0d192b;fill-opacity:1;fill-rule:nonzero;stroke:none"
           d="m 16029,2421.79 c 0,-118.31 60.7,-214.27 135.5,-214.27 74.8,0 135.5,95.96 135.5,214.27 0,118.31 -60.7,214.2 -135.5,214.2 -74.8,0 -135.5,-95.89 -135.5,-214.2" /></g><g
         transform="scale(1.51245)"
         id="g348"><path
           id="path350"
           style="fill:#0d192b;fill-opacity:1;fill-rule:nonzero;stroke:none"
           d="m 16063.8,2218.19 c 56.2,-43.9 213.3,-24 235.2,-1.32 l 1,394 c -42.2,36.89 -190.9,35.63 -236.2,2.05 v -394.73" /></g><g
         transform="scale(1.50277)"
         id="g352"><path
           id="path354"
           style="fill:#1e62cc;fill-opacity:1;fill-rule:nonzero;stroke:none"
           d="m 16113.7,2435.84 c 0,-81.32 41.7,-147.26 93.1,-147.26 51.5,0 93.2,65.94 93.2,147.26 0,81.38 -41.7,147.33 -93.2,147.33 -51.4,0 -93.1,-65.95 -93.1,-147.33" /></g><g
         transform="scale(1.50032)"
         id="g356"><path
           id="path358"
           style="fill:#0d192b;fill-opacity:1;fill-rule:nonzero;stroke:none"
           d="m 16186.3,2435.61 c 0,-49.65 25.5,-89.91 56.8,-89.91 31.4,0 56.9,40.26 56.9,89.91 0,49.66 -25.5,89.92 -56.9,89.92 -31.3,0 -56.8,-40.26 -56.8,-89.92" /></g><g
         transform="scale(1.38884)"
         id="g360"><path
           id="path362"
           style="fill:#0d192b;fill-opacity:1;fill-rule:nonzero;stroke:none"
           d="m 16300,2629.39 c 0,-128.45 -65.9,-232.64 -147.1,-232.64 -81.2,0 -147.1,104.19 -147.1,232.64 0,128.45 65.9,232.57 147.1,232.57 81.2,0 147.1,-104.12 147.1,-232.57" /></g><g
         transform="scale(1.40099)"
         id="g364"><path
           id="path366"
           style="fill:#0d192b;fill-opacity:1;fill-rule:nonzero;stroke:none"
           d="m 16300,2606.59 c 0,-127.34 -65.3,-230.62 -145.8,-230.62 -80.5,0 -145.9,103.28 -145.9,230.62 0,127.34 65.4,230.55 145.9,230.55 80.5,0 145.8,-103.21 145.8,-230.55" /></g><g
         transform="scale(1.39329)"
         id="g368"><path
           id="path370"
           style="fill:#0d192b;fill-opacity:1;fill-rule:nonzero;stroke:none"
           d="m 16300,2407.9 c -61,-47.66 -231.5,-26.05 -255.4,-1.43 l -1,427.69 c 45.7,40.05 207.2,38.68 256.3,2.22 l 0.1,-428.48" /></g><g
         transform="scale(1.39823)"
         id="g372"><path
           id="path374"
           style="fill:#1e62cc;fill-opacity:1;fill-rule:nonzero;stroke:none"
           d="m 16300,2617.96 c 0,-87.4 -44.8,-158.27 -100.1,-158.27 -55.4,0 -100.2,70.87 -100.2,158.27 0,87.47 44.8,158.34 100.2,158.34 55.3,0 100.1,-70.87 100.1,-158.34" /></g><g
         transform="scale(1.39396)"
         id="g376"><path
           id="path378"
           style="fill:#0d192b;fill-opacity:1;fill-rule:nonzero;stroke:none"
           d="m 16300,2621.45 c 0,-53.45 -27.4,-96.78 -61.3,-96.78 -33.8,0 -61.2,43.33 -61.2,96.78 0,53.44 27.4,96.77 61.2,96.77 33.9,0 61.3,-43.33 61.3,-96.77" /></g><g
         transform="scale(1.26366)"
         id="g380"><path
           id="path382"
           style="fill:#0d192b;fill-opacity:1;fill-rule:nonzero;stroke:none"
           d="m 16300,2889.87 c 0,-141.18 -72.4,-255.69 -161.7,-255.69 -89.2,0 -161.6,114.51 -161.6,255.69 0,141.17 72.4,255.61 161.6,255.61 89.3,0 161.7,-114.44 161.7,-255.61" /></g><g
         transform="scale(1.2758)"
         id="g384"><path
           id="path386"
           style="fill:#0d192b;fill-opacity:1;fill-rule:nonzero;stroke:none"
           d="m 16300,2862.35 c 0,-139.83 -71.7,-253.25 -160.1,-253.25 -88.5,0 -160.2,113.42 -160.2,253.25 0,139.84 71.7,253.18 160.2,253.18 88.4,0 160.1,-113.34 160.1,-253.18" /></g><g
         transform="scale(1.2681)"
         id="g388"><path
           id="path390"
           style="fill:#0d192b;fill-opacity:1;fill-rule:nonzero;stroke:none"
           d="m 16300,2645.62 c -66.9,-52.37 -254.3,-28.63 -280.5,-1.58 l -1.2,469.92 c 50.3,44 227.6,42.5 281.6,2.44 l 0.1,-470.78" /></g><g
         transform="scale(1.27304)"
         id="g392"><path
           id="path394"
           style="fill:#1e62cc;fill-opacity:1;fill-rule:nonzero;stroke:none"
           d="m 16300,2875.41 c 0,-95.99 -49.2,-173.84 -110,-173.84 -60.7,0 -109.9,77.85 -109.9,173.84 0,96.07 49.2,173.91 109.9,173.91 60.8,0 110,-77.84 110,-173.91" /></g><g
         transform="scale(1.26877)"
         id="g396"><path
           id="path398"
           style="fill:#0d192b;fill-opacity:1;fill-rule:nonzero;stroke:none"
           d="m 16300,2880.1 c 0,-58.71 -30.1,-106.32 -67.2,-106.32 -37.2,0 -67.3,47.61 -67.3,106.32 0,58.73 30.1,106.33 67.3,106.33 37.1,0 67.2,-47.6 67.2,-106.33" /></g><g
         transform="scale(1.38338)"
         id="g400"><path
           id="path402"
           style="fill:#0d192b;fill-opacity:1;fill-rule:nonzero;stroke:none"
           d="m 16017.9,3061.2 h 282.1 v 2937.73 h -282.1 V 3061.2" /></g><g
         transform="scale(1.52229)"
         id="g404"><path
           id="path406"
           style="fill:#1a56b3;fill-opacity:1;fill-rule:nonzero;stroke:none"
           d="m 13180.6,2693.12 c -0.4,2.16 -2,4.33 -2,6.56 0,141.31 698.7,255.87 1560.7,255.87 861.9,0 1560.7,-114.56 1560.7,-255.87 0,-2.23 -1.7,-4.4 -2,-6.56 h -3117.4" /></g><g
         transform="scale(1.39129)"
         id="g408"><path
           id="path410"
           style="fill:#1a56b3;fill-opacity:1;fill-rule:nonzero;stroke:none"
           d="m 16300,5097.7 h -455.9 v 556.03 H 16300 V 5097.7" /></g><g
         transform="scale(1.39129)"
         id="g412"><path
           id="path414"
           style="fill:#1a56b3;fill-opacity:1;fill-rule:nonzero;stroke:none"
           d="m 16300,3140.67 h -455.9 v 556.03 h 455.9 v -556.03" /></g><g
         transform="scale(1.44607)"
         id="g416"><path
           id="path418"
           style="fill:#4a82db;fill-opacity:1;fill-rule:nonzero;stroke:none"
           d="m 16282.6,9935.94 v -0.55 c 5.8,0.55 11.6,0.55 17.4,0.55 h -17.4" /></g><g
         transform="scale(1.62917)"
         id="g420"><path
           id="path422"
           style="fill:#9eddff;fill-opacity:1;fill-rule:nonzero;stroke:none"
           d="m 15456.9,5650.56 -13.4,-17.98 9.5,41.37 h 21.1 z m 651.2,3175.67 c 0,0 -0.3,0 -1.1,0.25 -3.4,0.25 -12.9,0.55 -28,0.8 -16.5,0.24 -38.4,0.49 -64.6,0.49 -346.1,1.53 -1474.9,-8.47 -1474.9,-8.47 -5.1,0 -10.5,0 -15.9,-0.55 -179.4,-7.98 -354.6,-149.47 -396.3,-322.62 0,0 -491.6,-2436.46 -709.8,-2646.14 -217.9,-209.44 -965.7,-189.12 -965.7,-189.12 -164.9,0 -311,-97.29 -357.6,-239.57 -10.3,-30.87 -15.7,-63.83 -15.7,-98.27 0,-97.04 40.9,-184.76 106.8,-248.28 65.6,-63.6 156.2,-102.94 256.8,-102.94 h 1662.7 l 1079.3,-21.91 c 245.8,-6.69 462.4,158.54 522.1,396.27 5.6,14.67 10,29.59 13.6,44.75 l 571.4,3119.33 c 6,25.22 8.8,49.65 8.8,73.35 0,121.72 -75.1,216.92 -191.9,242.63" /></g><g
         transform="scale(1.53887)"
         id="g424"><path
           id="path426"
           style="fill:#1a56b3;fill-opacity:1;fill-rule:nonzero;stroke:none"
           d="m 16298.1,5262.32 c 0.3,-1.62 1.9,-3.18 1.9,-4.87 0,-105.08 -908.5,-190.21 -1721.5,-190.21 -812.9,0 -1472,85.13 -1472,190.21 0,1.69 1.6,3.25 1.9,4.87 h 3189.7" /></g><g
         transform="scale(1.62917)"
         id="g428"><path
           id="path430"
           style="fill:#61b8ff;fill-opacity:1;fill-rule:nonzero;stroke:none"
           d="m 16300,8583.6 c 0,-23.7 -2.8,-48.13 -8.8,-73.35 -21.5,-62.37 -555.1,-3106.07 -585,-3163.96 -59.7,-237.85 -276.3,-403.08 -522.1,-396.39 -639,20.68 -2090.6,25.77 -2742,21.91 -232.2,-4.79 -421.5,226.31 -347.9,449.49 -80.2,-378.41 3038,-424.76 3364.6,71.14 232.3,173.83 103.9,3476.63 649.2,3333.79 116.9,-25.71 192,-120.91 192,-242.63" /></g><g
         transform="scale(1.48988)"
         id="g432"><path
           id="path434"
           style="fill:#0e0e0e;fill-opacity:1;fill-rule:nonzero;stroke:none"
           d="M 15965.6,9712.57 C 16300,7357.76 14065.8,7698.25 14130.4,8646.05 c 55.7,816.57 549.9,912.08 421.1,1447.55 -141.3,587.7 67.9,1101.9 625,1101.9 545.6,0 872.1,-397.6 755.6,-1088.9 -23.1,-137.16 19.3,-280.39 33.5,-394.03" /></g><g
         transform="scale(1.30787)"
         id="g436"><path
           id="path438"
           style="fill:#ffa599;fill-opacity:1;fill-rule:nonzero;stroke:none"
           d="m 15802.3,3554.34 c 4.7,-26.61 92.7,-540.88 92.7,-540.88 l 353.7,30.36 51.3,630.18 -497.7,-119.66" /></g><g
         transform="scale(1.47228)"
         id="g440"><path
           id="path442"
           style="fill:#0d192b;fill-opacity:1;fill-rule:nonzero;stroke:none"
           d="m 16037.1,6950.77 c 0,0 262.9,-738.78 -171.7,-865.39 -434.6,-126.6 -1161.7,-174.62 -1161.7,-174.62 l -234.8,-2922.54 c -87.1,-34.64 -180.3,-65.48 -397.5,-21.19 0,0 -534.9,2941.96 -380.6,3294.61 154.2,352.72 1361.3,711.34 1361.3,711.34 l 985,-22.21" /></g><g
         transform="scale(1.31464)"
         id="g444"><path
           id="path446"
           style="fill:#ffffff;fill-opacity:1;fill-rule:nonzero;stroke:none"
           d="m 16271.2,2942.62 c -26.2,-67.24 -229,-162.78 -456,-232.46 -155.1,-47.69 -321.5,-83.21 -450.5,-89.37 -80.6,-3.88 -146.5,3.65 -186,26.92 0,0 -100.2,259.08 122.4,401.86 222.5,142.85 473.7,171.38 473.7,171.38 32.1,-45.87 84.2,-75.99 148.5,-83.52 43.1,-5.02 91.7,0.07 143.5,17.34 41.6,13.84 85.2,35.52 129.7,66.18 0,0 20.4,-21.38 41.3,-56.37 2.1,-3.42 4.2,-6.92 6.2,-10.57 29.1,-52.48 56,-129.92 27.2,-211.39" /></g><g
         transform="scale(1.31098)"
         id="g448"><path
           id="path450"
           style="fill:#dbf2ff;fill-opacity:1;fill-rule:nonzero;stroke:none"
           d="m 16300,3173.75 -10.5,-10.92 -430,-445.08 c -155.5,-47.83 -322.4,-83.45 -451.8,-89.63 -8.9,81.85 -5.2,255.31 152.8,378.19 97.3,75.67 259.6,117.17 407.4,139.9 50.7,7.78 99.8,13.42 143.8,17.39 79.4,7.17 142.8,9.31 171.5,9.84 10.9,0.31 16.8,0.31 16.8,0.31" /></g><g
         transform="scale(1.32932)"
         id="g452"><path
           id="path454"
           style="fill:#ffa599;fill-opacity:1;fill-rule:nonzero;stroke:none"
           d="m 15873.8,3417.16 c 4.6,-26.18 41.8,-531.85 41.8,-531.85 l 298.8,3.84 85.6,538.47 -426.2,-10.46" /></g><g
         transform="scale(1.33754)"
         id="g456"><path
           id="path458"
           style="fill:#ffffff;fill-opacity:1;fill-rule:nonzero;stroke:none"
           d="m 16172.8,3194.75 c 0,0 104.1,-201.72 127.2,-252.93 -116.2,-339.43 -910.5,-603.57 -992.6,-501.74 0,0 -148.1,229.37 37.6,411.2 185.7,181.82 454.1,266.01 454.1,266.01 88.4,-83.29 319.7,-60.56 373.7,77.46" /></g><g
         transform="scale(1.52601)"
         id="g460"><path
           id="path462"
           style="fill:#0d192b;fill-opacity:1;fill-rule:nonzero;stroke:none"
           d="m 16162.7,6605.28 c 0,0 137.3,-620.96 -385.6,-789.31 -415.7,-133.82 -1130.2,-406.82 -1130.2,-406.82 L 14193.2,2882.3 c -19.1,-53.74 -321.3,-73.72 -359.7,-30.54 0,0 -105.3,2781.57 103.7,3088.58 321,471.37 756.1,759.44 756.1,759.44 440.3,50.52 1082.4,97.7 1469.4,-94.5" /></g><g
         transform="scale(1.32494)"
         id="g464"><path
           id="path466"
           style="fill:#2a518c;fill-opacity:1;fill-rule:nonzero;stroke:none"
           d="m 15921,3284 c -5.7,128.84 -136.8,3159.84 121.3,3564.24 67,105.06 147.8,211.03 240,314.88 l 17.7,-15.77 c -91.3,-102.95 -171.3,-207.86 -237.7,-311.86 -254.1,-398.13 -119,-3518.96 -117.6,-3550.43 L 15921,3284" /></g><g
         transform="scale(1.38805)"
         id="g468"><path
           id="path470"
           style="fill:#ffa599;fill-opacity:1;fill-rule:nonzero;stroke:none"
           d="m 15887.5,9799.73 c 236.4,289.97 412.5,117.43 402,-208.43 -10.5,-325.85 -230.6,-1745.68 -494.3,-1648.06 -263.6,97.54 -204.4,1492.52 92.3,1856.49" /></g><g
         transform="scale(1.51496)"
         id="g472"><path
           id="path474"
           style="fill:#fd5655;fill-opacity:1;fill-rule:nonzero;stroke:none"
           d="m 14717.6,7824.28 -145.2,-1013.35 c 14.2,-52.09 92.7,-96.18 210.3,-130.83 18.7,-5.55 38.2,-10.76 58.6,-15.78 0,0 0.1,-0.06 0.1,0 400.8,-98.29 1138.3,-104.16 1458.6,23.56 0,0 -24.9,171.56 -127,446.88 -77.6,209.18 -199.9,478.3 -389.7,777.58 -12.1,88.84 62.9,245.55 137.9,425.22 119.4,286.15 238.9,630.58 7.1,851.84 -377.2,360.4 -1364.2,258.16 -1429.1,-454.8 -9.9,-461.2 218.4,-910.32 218.4,-910.32" /></g><g
         transform="scale(1.50316)"
         id="g476"><path
           id="path478"
           style="fill:#e64847;fill-opacity:1;fill-rule:nonzero;stroke:none"
           d="m 14845.7,6661.17 c 6.9,1.13 47.7,22.29 112.1,55.48 0,0 0.1,-0.06 0.1,0 275.3,141.7 980.9,504.01 1309.2,474.67 11.6,-1 22.6,-1.2 32.9,-0.53 -78.2,210.82 -201.4,482.05 -392.8,783.68 -12.1,89.54 63.4,247.48 139,428.56 l -429.6,487.71 c 0,0 1.5,-11.11 4.2,-31.13 22.9,-175.77 132,-1040.88 73.1,-1180.52 -53.9,-127.8 -616.2,-736.58 -795.1,-946.54 -38.8,-45.7 -59.6,-72.45 -53.1,-71.38" /></g><g
         transform="scale(1.43268)"
         id="g480"><path
           id="path482"
           style="fill:#ffa599;fill-opacity:1;fill-rule:nonzero;stroke:none"
           d="m 15686.5,9654.42 c 13.2,-90.67 130,-331.83 130,-331.83 0,0 483.5,300.35 466.3,418.66 l -78.5,317.15 -51.2,206.3 -492.5,-71.7 16.9,-352.36 9,-186.22" /></g><g
         transform="scale(1.40822)"
         id="g484"><path
           id="path486"
           style="fill:#e87c5d;fill-opacity:1;fill-rule:nonzero;stroke:none"
           d="m 15949.8,10011.6 350.2,234.3 -367.4,124.1 17.2,-358.4" /></g><g
         transform="scale(1.44031)"
         id="g488"><path
           id="path490"
           style="fill:#ffa599;fill-opacity:1;fill-rule:nonzero;stroke:none"
           d="m 15146.4,10779 c -27.7,-438.9 220.7,-800.85 554.8,-808.48 334.1,-7.71 598.8,342.48 591.2,782.18 -7,414.2 -256,738.3 -556.2,745.2 -300.3,6.9 -563.8,-305.5 -589.8,-718.9" /></g><g
         transform="scale(1.46459)"
         id="g492"><path
           id="path494"
           style="fill:#0e0e0e;fill-opacity:1;fill-rule:nonzero;stroke:none"
           d="m 15298.7,10903.4 c 410.3,-525.9 1001.3,-316.9 865.1,-2.3 0,0 -158.4,433.3 -637.1,440.3 -598.7,8.8 -228,-438 -228,-438" /></g><g
         transform="scale(1.39017)"
         id="g496"><path
           id="path498"
           style="fill:#bd4a31;fill-opacity:1;fill-rule:nonzero;stroke:none"
           d="m 16238.6,10835.1 c -16.1,0.3 -31.8,4.1 -40.7,15.3 -21.8,27.6 37.1,162.3 49.1,189 1.5,3.4 5.5,4.9 8.8,3.4 3.3,-1.5 4.9,-5.5 3.3,-8.8 -28.5,-63.4 -63.1,-159.7 -50.7,-175.3 14.4,-18.2 64.3,-7.9 82.2,-2.4 3.5,1.1 7.2,-0.9 8.3,-4.4 1.1,-3.5 -0.8,-7.3 -4.4,-8.3 -4.6,-1.4 -30.8,-9.1 -55.9,-8.5" /></g><g
         transform="scale(1.41513)"
         id="g500"><path
           id="path502"
           style="fill:#bd4a31;fill-opacity:1;fill-rule:nonzero;stroke:none"
           d="m 15860.3,10490.4 c 0,0 189.5,-57.9 439.7,71.5 -137.6,-198.4 -317.6,-322.2 -439.7,-71.5" /></g><g
         transform="scale(1.41193)"
         id="g504"><path
           id="path506"
           style="fill:#0e0e0e;fill-opacity:1;fill-rule:nonzero;stroke:none"
           d="m 16299.2,10914.8 c -0.8,-33 -14.6,-59.4 -30.9,-59 -16.4,0.4 -29,27.4 -28.3,60.4 0.8,33 14.7,59.4 31,59 16.3,-0.3 29,-27.4 28.2,-60.4" /></g><g
         transform="scale(1.36254)"
         id="g508"><path
           id="path510"
           style="fill:#0e0e0e;fill-opacity:1;fill-rule:nonzero;stroke:none"
           d="m 16299.2,11337.5 c -0.7,-34.1 -15.1,-61.5 -32.1,-61.1 -16.9,0.3 -30,28.4 -29.2,62.5 0.7,34.2 15.1,61.6 32.1,61.2 16.9,-0.4 30,-28.4 29.2,-62.6" /></g><g
         transform="scale(1.37747)"
         id="g512"><path
           id="path514"
           style="fill:#0e0e0e;fill-opacity:1;fill-rule:nonzero;stroke:none"
           d="m 16263.5,11698.7 c 0,0 -77.5,-425.4 -437.6,-453.6 -240.8,-18.9 109.6,704.4 338.9,690.3 135.2,-8.3 98.7,-236.7 98.7,-236.7" /></g><g
         transform="scale(1.51013)"
         id="g516"><path
           id="path518"
           style="fill:#ffa599;fill-opacity:1;fill-rule:nonzero;stroke:none"
           d="m 16054.2,9065.55 c 0,0 -170.8,185.74 -445.7,-20.86 -225,-169.12 155.3,-1247.04 155.3,-1247.04 l -1121.7,-1064.94 85.9,-108.34 c 0,0 1342.5,562.87 1513.4,1007.73 58.6,281.63 -55.3,1236.84 -187.2,1433.45" /></g><g
         transform="scale(1.3724)"
         id="g520"><path
           id="path522"
           style="fill:#ffa599;fill-opacity:1;fill-rule:nonzero;stroke:none"
           d="m 16233,8461.02 67,-1158.48 -159.4,-26.67 c 0,0 -344.7,795.11 -329,1244.18 13.7,393.54 469.2,299.47 421.4,-59.03" /></g><g
         transform="scale(1.38846)"
         id="g524"><path
           id="path526"
           style="fill:#ffa599;fill-opacity:1;fill-rule:nonzero;stroke:none"
           d="m 16127.3,7289.3 c 0,0 172.7,-103.35 89.6,-173.36 -83.1,-70 -382.6,-65.9 -297,120.49 85.5,186.4 207.4,52.87 207.4,52.87" /></g><g
         transform="scale(1.38369)"
         id="g528"
         style="display:inline"><path
           id="path530"
           style="fill:#ffa599;fill-opacity:1;fill-rule:nonzero;stroke:none"
           d="m 15979.3,7367.49 c -13.6,2.67 -314.6,-210.96 -223.9,-303.68 90.7,-92.73 544.6,185.44 454.8,298.76 -89.7,113.4 -230.9,4.92 -230.9,4.92" /></g></g></g></svg>
